<svg width="400" height="400" viewBox="0 0 400 400" fill="none" xmlns="http://www.w3.org/2000/svg">
  <path d="M200 50C200 50 150 100 150 200C150 300 200 350 200 350" stroke="#2D6A4F" stroke-width="8" stroke-linecap="round"/>
  <path d="M200 50C200 50 250 100 250 200C250 300 200 350 200 350" stroke="#2D6A4F" stroke-width="8" stroke-linecap="round"/>
  <path d="M180 150C180 150 120 170 100 220" stroke="#40916C" stroke-width="6" stroke-linecap="round"/>
  <path d="M220 150C220 150 280 170 300 220" stroke="#40916C" stroke-width="6" stroke-linecap="round"/>
  <path d="M180 250C180 250 120 270 100 320" stroke="#40916C" stroke-width="6" stroke-linecap="round"/>
  <path d="M220 250C220 250 280 270 300 320" stroke="#40916C" stroke-width="6" stroke-linecap="round"/>
  <circle cx="200" cy="50" r="10" fill="#74C69D"/>
  <circle cx="100" cy="220" r="8" fill="#74C69D"/>
  <circle cx="300" cy="220" r="8" fill="#74C69D"/>
  <circle cx="100" cy="320" r="8" fill="#74C69D"/>
  <circle cx="300" cy="320" r="8" fill="#74C69D"/>
</svg>
